# xmcd
#
# Track frame offsets:
# 150
# 11382
# 28603
# 40383
# 48964
# 60485
# 74617
# 86365
# 99108
# 108173
# 118583
# 132503
# 145218
#
# Disc length: 2143 seconds
#
# Revision: 0
# Processed by: cddbd v1.4PL0 Copyright (c) Steve Scherf et al.
# Submitted via: MacMP3 Pro 5.0 (http://mp3.act2.co.jp/)
#
DISCID=a6085d0d
DTITLE=Akutagawa Takayuki - Japan Army songs
DYEAR=1900
DGENRE=
TTITLE0=Labauru-shouka
TTITLE1=Sorano-shinnpei
TTITLE2=Moyuru-taikuu
TTITLE3=Sorano-Yuushi
TTITLE4=katouhayato-senntoutai
TTITLE5=Doukino-sakura
TTITLE6=Nihon-Rikugun
TTITLE7=Hoheino-Honryou
TTITLE8=Toushin-kou
TTITLE9=Danchone-bushi
TTITLE10=Taiheiyou-koushinkyoku
TTITLE11=Senyuuno-ikotsu-wo-daite
TTITLE12=Kaikou-kaba
EXTD=
EXTT0=
EXTT1=
EXTT2=
EXTT3=
EXTT4=
EXTT5=
EXTT6=
EXTT7=
EXTT8=
EXTT9=
EXTT10=
EXTT11=
EXTT12=
PLAYORDER=
